<svg width="106" height="106" viewBox="0 0 106 106" fill="none" xmlns="http://www.w3.org/2000/svg">
<path d="M80.8594 0.000976562H24.7529C11.0822 0.000976562 0 11.0832 0 24.7539V80.8604C0 94.531 11.0822 105.613 24.7529 105.613H80.8594C94.5301 105.613 105.612 94.531 105.612 80.8604V24.7539C105.612 11.0832 94.5301 0.000976562 80.8594 0.000976562Z" fill="#2F2152"/>
<path d="M52.8093 11.5522C41.6053 11.5522 40.1989 11.6013 35.7987 11.8014C31.4067 12.0027 28.4087 12.6979 25.7858 13.7181C23.072 14.7718 20.7704 16.1814 18.4775 18.4752C16.1825 20.7686 14.7728 23.0702 13.7158 25.7827C12.6927 28.4065 11.9967 31.4057 11.7991 35.7956C11.6023 40.1963 11.5508 41.6031 11.5508 52.8075C11.5508 64.0119 11.6003 65.4137 11.8 69.8139C12.0021 74.2059 12.6973 77.2039 13.7167 79.8269C14.7711 82.5406 16.1808 84.8422 18.4746 87.1352C20.7671 89.4302 23.0687 90.8432 25.7804 91.8968C28.4054 92.917 31.4038 93.6122 35.795 93.8135C40.1956 94.0136 41.6008 94.0627 52.8043 94.0627C64.0096 94.0627 65.4114 94.0136 69.8116 93.8135C74.2036 93.6122 77.2049 92.917 79.83 91.8968C82.5425 90.8432 84.8408 89.4302 87.1329 87.1352C89.4279 84.8422 90.8372 82.5406 91.8945 79.8281C92.9086 77.2039 93.6049 74.2051 93.8112 69.8148C94.0088 65.4145 94.0604 64.0119 94.0604 52.8075C94.0604 41.6031 94.0088 40.1971 93.8112 35.7965C93.6049 31.4045 92.9086 28.4069 91.8945 25.7839C90.8372 23.0702 89.4279 20.7686 87.1329 18.4752C84.8383 16.1806 82.5433 14.7709 79.8275 13.7185C77.1975 12.6979 74.1978 12.0023 69.8059 11.8014C65.4052 11.6013 64.0042 11.5522 52.7965 11.5522H52.8093ZM49.1083 18.9868C50.2069 18.9851 51.4326 18.9868 52.8093 18.9868C63.8247 18.9868 65.13 19.0264 69.4799 19.224C73.5023 19.408 75.6855 20.08 77.1397 20.6448C79.0651 21.3923 80.4376 22.2863 81.8807 23.7307C83.3247 25.1746 84.2182 26.5496 84.9678 28.475C85.5326 29.9271 86.2055 32.1103 86.3886 36.1327C86.5863 40.4818 86.6292 41.7879 86.6292 52.798C86.6292 63.8081 86.5863 65.1146 86.3886 69.4633C86.2047 73.4856 85.5326 75.6688 84.9678 77.1214C84.2203 79.0468 83.3247 80.4177 81.8807 81.8607C80.4368 83.3047 79.0659 84.1982 77.1397 84.9462C75.6871 85.5135 73.5023 86.1838 69.4799 86.3678C65.1309 86.5654 63.8247 86.6083 52.8093 86.6083C41.7934 86.6083 40.4877 86.5654 36.1391 86.3678C32.1167 86.1822 29.9335 85.5101 28.478 84.9454C26.5531 84.1974 25.1777 83.3038 23.7337 81.8599C22.2898 80.416 21.3962 79.0443 20.6466 77.1181C20.0819 75.6655 19.409 73.4823 19.2258 69.46C19.0282 65.1109 18.9886 63.8048 18.9886 52.7877C18.9886 41.7706 19.0282 40.4715 19.2258 36.1224C19.4098 32.1 20.0819 29.9168 20.6466 28.4626C21.3946 26.5372 22.2898 25.1622 23.7342 23.7183C25.1785 22.2744 26.5531 21.3804 28.4785 20.6312C29.9327 20.0639 32.1167 19.3935 36.1391 19.2087C39.9448 19.0367 41.4197 18.9851 49.1083 18.9765V18.9868ZM74.8311 25.8367C72.098 25.8367 69.8805 28.0521 69.8805 30.7856C69.8805 33.5188 72.098 35.7362 74.8311 35.7362C77.5642 35.7362 79.7817 33.5188 79.7817 30.7856C79.7817 28.0525 77.5642 25.8351 74.8311 25.8351V25.8367ZM52.8093 31.6211C41.1094 31.6211 31.6233 41.1072 31.6233 52.8075C31.6233 64.5077 41.1094 73.9893 52.8093 73.9893C64.5096 73.9893 73.9924 64.5077 73.9924 52.8075C73.9924 41.1076 64.5088 31.6211 52.8085 31.6211H52.8093ZM52.8093 39.0556C60.4039 39.0556 66.5612 45.212 66.5612 52.8075C66.5612 60.4021 60.4039 66.5593 52.8093 66.5593C45.2147 66.5593 39.0578 60.4021 39.0578 52.8075C39.0578 45.212 45.2143 39.0556 52.8093 39.0556Z" fill="white"/>
</svg>
