<svg width="59" height="157" viewBox="0 0 59 157" fill="none" xmlns="http://www.w3.org/2000/svg">
<path d="M54.1631 0.857178C55.4713 0.425497 56.8665 1.22998 57.1162 2.58472C59.7787 17.0447 59.2518 30.5411 55.8477 41.5906C57.5689 48.8823 57.9985 57.1222 57.0869 65.8982C56.005 80.4531 51.6423 93.9244 47.6777 105.901C44.6726 114.98 41.9358 123.079 40.7744 130.379C39.7446 136.852 40.0108 142.39 42.2568 147.182L53.8721 136.418L54.0811 136.243C55.1601 135.429 56.7019 135.548 57.6406 136.56C58.5794 137.573 58.5813 139.12 57.6875 140.135L57.498 140.329L41.4424 155.211C40.075 156.478 37.9626 156.438 36.6426 155.151L36.5176 155.023L21.6367 138.968C20.6357 137.887 20.7002 136.2 21.7803 135.199C22.8605 134.198 24.5478 134.262 25.5488 135.343L36.4785 147.135C34.5355 141.648 34.5258 135.708 35.5068 129.541C36.7517 121.716 39.661 113.147 42.6143 104.225C47.9898 87.9861 53.6475 70.1454 51.5684 50.9138C51.2806 49.6789 50.9056 48.6186 50.4307 47.7917C47.5907 51.1049 44.3972 54.2833 40.8057 56.7751C31.2327 64.5641 17.1454 64.3121 7.92969 55.6833C3.08171 51.1143 0.279265 44.9141 0.0810547 38.2292C-0.116197 31.5732 2.28452 25.1884 6.88184 20.3103C11.6483 15.2529 18.0278 12.5915 24.4512 12.4011C29.2178 12.2599 33.9664 13.4569 38.1729 16.0085C41.7492 17.9099 44.9696 20.5788 47.7188 24.0173C49.511 26.2651 51.0768 28.8014 52.3926 31.5427C54.4146 24.0032 53.9584 10.7516 52.5625 3.72046C52.3205 2.50057 52.9821 1.24701 54.1631 0.857178ZM35.667 25.7126C32.3534 24.8218 28.8753 25.2445 25.8418 26.9343C23.1229 28.4403 21.0976 30.7983 20.4424 33.2322C19.8111 35.4909 18.4957 43.1233 26.8047 45.699C28.1846 46.1235 29.6441 46.2837 31.1846 46.238C37.2591 46.058 44.0818 42.6561 46.5801 39.5857L46.5811 39.614C47.5073 38.4811 47.2586 36.947 46.9053 35.823C45.5271 31.5292 40.476 26.9956 35.667 25.7126Z" fill="url(#paint0_linear_85_138)"/>
<defs>
<linearGradient id="paint0_linear_85_138" x1="29.4385" y1="0.740967" x2="29.4385" y2="156.139" gradientUnits="userSpaceOnUse">
<stop stop-color="#5AEFD3"/>
<stop offset="0.682692" stop-color="#7D60E4"/>
</linearGradient>
</defs>
</svg>
