<svg width="107" height="106" viewBox="0 0 107 106" fill="none" xmlns="http://www.w3.org/2000/svg">
<path d="M94.571 0.000610352C97.6832 0.000610352 100.668 1.23694 102.869 3.43762C105.069 5.63831 106.306 8.62307 106.306 11.7353V93.8782C106.306 96.9904 105.069 99.9752 102.869 102.176C100.668 104.377 97.6832 105.613 94.571 105.613H12.4281C9.31582 105.613 6.33106 104.377 4.13037 102.176C1.92969 99.9752 0.693359 96.9904 0.693359 93.8782V11.7353C0.693359 8.62307 1.92969 5.63831 4.13037 3.43762C6.33106 1.23694 9.31582 0.000610352 12.4281 0.000610352H94.571ZM91.6373 90.9445V59.8476C91.6373 54.7746 89.6221 49.9095 86.0349 46.3223C82.4478 42.7352 77.5827 40.72 72.5097 40.72C67.5225 40.72 61.7138 43.771 58.8975 48.3476V41.8348H42.5276V90.9445H58.8975V62.0185C58.8975 57.5006 62.5352 53.8042 67.0531 53.8042C69.2317 53.8042 71.321 54.6696 72.8615 56.2101C74.4019 57.7506 75.2674 59.8399 75.2674 62.0185V90.9445H91.6373ZM23.4587 32.6231C26.073 32.6231 28.5802 31.5846 30.4287 29.736C32.2773 27.8874 33.3158 25.3802 33.3158 22.7659C33.3158 17.3093 28.9153 12.8501 23.4587 12.8501C20.8288 12.8501 18.3067 13.8948 16.4471 15.7544C14.5876 17.614 13.5429 20.1361 13.5429 22.7659C13.5429 28.2226 18.002 32.6231 23.4587 32.6231ZM31.6143 90.9445V41.8348H15.3617V90.9445H31.6143Z" fill="#2F2152"/>
</svg>
