<svg width="60" height="71" viewBox="0 0 60 71" fill="none" xmlns="http://www.w3.org/2000/svg">
<path d="M47.5119 11.6323C44.9034 8.57943 43.4657 4.65954 43.4661 0.601685H31.6723V49.1051C31.5832 51.7305 30.5025 54.2178 28.6582 56.0423C26.8139 57.8667 24.3502 58.8856 21.7868 58.884C16.367 58.884 11.8632 54.3466 11.8632 48.714C11.8632 41.9861 18.1991 36.9401 24.7258 39.0133V26.6527C11.5579 24.8534 0.03125 35.3364 0.03125 48.714C0.03125 61.7395 10.5655 71.0099 21.7487 71.0099C33.7333 71.0099 43.4661 61.0354 43.4661 48.714V24.1102C48.2485 27.63 53.9903 29.5185 59.8782 29.5082V17.4214C59.8782 17.4214 52.7027 17.7735 47.5119 11.6323Z" fill="#F5F5F5"/>
</svg>
